<?xml version="1.0" encoding="UTF-8"?>
<svg xmlns="http://www.w3.org/2000/svg" xmlns:xlink="http://www.w3.org/1999/xlink" width="32px" height="32px" viewBox="0 0 32 32" version="1.1">
<g id="surface1">
<path style=" stroke:none;fill-rule:nonzero;fill:rgb(0%,0%,0%);fill-opacity:1;" d="M 12.109375 0 L 12.109375 2.410156 L 27.910156 2.410156 L 27.910156 29.5625 L 25.042969 25.070312 L 12.109375 29.5625 L 12.109375 31.972656 L 30.25 31.972656 L 30.25 0 Z M 12.109375 0 "/>
<path style=" stroke:none;fill-rule:nonzero;fill:rgb(0%,0%,0%);fill-opacity:1;" d="M 14.132812 4.617188 L 18.925781 4.617188 L 18.925781 11.316406 L 14.132812 11.316406 Z M 14.132812 4.617188 "/>
<path style=" stroke:none;fill-rule:nonzero;fill:rgb(0%,0%,0%);fill-opacity:1;" d="M 21.035156 6.394531 L 25.503906 6.394531 C 25.855469 6.394531 26.160156 6.113281 26.160156 5.734375 C 26.160156 5.355469 25.878906 5.074219 25.503906 5.074219 L 21.035156 5.074219 C 20.683594 5.074219 20.375 5.355469 20.375 5.734375 C 20.375 6.113281 20.683594 6.394531 21.035156 6.394531 Z M 21.035156 6.394531 "/>
<path style=" stroke:none;fill-rule:nonzero;fill:rgb(0%,0%,0%);fill-opacity:1;" d="M 21.035156 10.683594 L 25.503906 10.683594 C 25.855469 10.683594 26.160156 10.402344 26.160156 10.023438 C 26.160156 9.671875 25.878906 9.363281 25.503906 9.363281 L 21.035156 9.363281 C 20.683594 9.363281 20.375 9.644531 20.375 10.023438 C 20.375 10.378906 20.683594 10.683594 21.035156 10.683594 Z M 21.035156 10.683594 "/>
<path style=" stroke:none;fill-rule:nonzero;fill:rgb(0%,0%,0%);fill-opacity:1;" d="M 13.472656 14.289062 C 13.472656 14.640625 13.753906 14.949219 14.132812 14.949219 L 25.527344 14.949219 C 25.878906 14.949219 26.1875 14.667969 26.1875 14.289062 C 26.1875 13.910156 25.90625 13.628906 25.527344 13.628906 L 14.132812 13.628906 C 13.78125 13.65625 13.472656 13.929688 13.472656 14.289062 Z M 13.472656 14.289062 "/>
<path style=" stroke:none;fill-rule:nonzero;fill:rgb(0%,0%,0%);fill-opacity:1;" d="M 14.132812 19.214844 L 25.527344 19.214844 C 25.878906 19.214844 26.1875 18.933594 26.1875 18.554688 C 26.1875 18.175781 25.90625 17.894531 25.527344 17.894531 L 14.132812 17.894531 C 13.78125 17.894531 13.472656 18.175781 13.472656 18.554688 C 13.472656 18.933594 13.78125 19.214844 14.132812 19.214844 Z M 14.132812 19.214844 "/>
<path style=" stroke:none;fill-rule:nonzero;fill:rgb(0%,0%,0%);fill-opacity:1;" d="M 14.132812 23.472656 L 25.527344 23.472656 C 25.878906 23.472656 26.1875 23.191406 26.1875 22.8125 C 26.1875 22.433594 25.90625 22.152344 25.527344 22.152344 L 14.132812 22.152344 C 13.78125 22.152344 13.472656 22.433594 13.472656 22.8125 C 13.472656 23.191406 13.78125 23.472656 14.132812 23.472656 Z M 14.132812 23.472656 "/>
<path style=" stroke:none;fill-rule:nonzero;fill:rgb(0%,0%,0%);fill-opacity:1;" d="M 2.410156 4.160156 L 7.992188 4.160156 C 8.347656 4.160156 8.652344 3.878906 8.652344 3.5 C 8.652344 3.121094 8.371094 2.839844 7.992188 2.839844 L 2.410156 2.839844 C 2.058594 2.839844 1.75 3.121094 1.75 3.5 C 1.75 3.886719 2.058594 4.160156 2.410156 4.160156 Z M 2.410156 4.160156 "/>
<path style=" stroke:none;fill-rule:nonzero;fill:rgb(0%,0%,0%);fill-opacity:1;" d="M 2.410156 9.972656 L 7.992188 9.972656 C 8.347656 9.972656 8.652344 9.691406 8.652344 9.3125 C 8.652344 8.933594 8.371094 8.652344 7.992188 8.652344 L 2.410156 8.652344 C 2.058594 8.652344 1.75 8.933594 1.75 9.3125 C 1.75 9.691406 2.058594 9.972656 2.410156 9.972656 Z M 2.410156 9.972656 "/>
<path style=" stroke:none;fill-rule:nonzero;fill:rgb(0%,0%,0%);fill-opacity:1;" d="M 2.410156 23.242188 L 7.992188 23.242188 C 8.347656 23.242188 8.652344 22.960938 8.652344 22.582031 C 8.652344 22.203125 8.371094 21.921875 7.992188 21.921875 L 2.410156 21.921875 C 2.058594 21.921875 1.75 22.203125 1.75 22.582031 C 1.75 22.960938 2.058594 23.242188 2.410156 23.242188 Z M 2.410156 23.242188 "/>
<path style=" stroke:none;fill-rule:nonzero;fill:rgb(0%,0%,0%);fill-opacity:1;" d="M 8.652344 28.449219 C 8.652344 28.09375 8.371094 27.789062 7.992188 27.789062 L 2.410156 27.789062 C 2.058594 27.789062 1.75 28.070312 1.75 28.449219 C 1.75 28.800781 2.03125 29.105469 2.410156 29.105469 L 7.992188 29.105469 C 8.347656 29.082031 8.652344 28.800781 8.652344 28.449219 Z M 8.652344 28.449219 "/>
<path style=" stroke:none;fill-rule:nonzero;fill:rgb(0%,0%,0%);fill-opacity:1;" d="M 5.355469 1.546875 L 7.992188 1.546875 C 9.058594 1.546875 9.945312 2.410156 9.945312 3.5 C 9.945312 4.566406 9.085938 5.453125 7.992188 5.453125 L 5.355469 5.453125 L 5.355469 7.378906 L 7.992188 7.378906 C 9.058594 7.378906 9.945312 8.242188 9.945312 9.332031 C 9.945312 10.398438 9.085938 11.285156 7.992188 11.285156 L 5.355469 11.285156 L 5.355469 20.648438 L 7.992188 20.648438 C 9.058594 20.648438 9.945312 21.511719 9.945312 22.601562 C 9.945312 23.667969 9.085938 24.554688 7.992188 24.554688 L 5.355469 24.554688 L 5.355469 26.480469 L 7.992188 26.480469 C 9.058594 26.480469 9.945312 27.34375 9.945312 28.433594 C 9.945312 29.523438 9.085938 30.386719 7.992188 30.386719 L 5.355469 30.386719 L 5.355469 32 L 10.789062 32 L 10.789062 0 L 5.355469 0 Z M 5.355469 1.546875 "/>
</g>
</svg>
